<svg xmlns="http://www.w3.org/2000/svg" xmlns:xlink="http://www.w3.org/1999/xlink" version="1.1" data-diagram-type="DESCRIPTION" style="width:752px;height:622px;background:#FFFFFF;" width="752px" height="622px" viewBox="0 0 752 622" zoomAndPan="magnify" preserveAspectRatio="none" contentStyleType="text/css"><?plantuml 1.2026.8?><defs/><g font-family="sans-serif" lengthAdjust="spacing"><g class="title" data-source-line="3"><text x="204.083" y="23.132" fill="#000" font-size="14" textLength="337.483" font-weight="700" font-family="Arial">UML Use Case — Интеграция LeaveOps с Bitrix24</text></g><!--cluster LeaveOps--><g class="cluster" data-qualified-name="LeaveOps" id="ent0004" data-source-line="9"><rect x="71.5" y="227.599" width="636" height="273" fill="none" style="stroke:#181818;stroke-width:1;" rx="5" ry="5"/><text x="356.038" y="242.73" fill="#000" font-size="14" textLength="66.924" font-weight="700" font-family="Arial">LeaveOps</text></g><!--entity Sync--><g class="entity" data-qualified-name="LeaveOps.Sync" id="ent0005" data-source-line="10"><ellipse cx="201.127" cy="374.724" rx="113.627" ry="25.125" fill="#F1F1F1" style="stroke:#181818;stroke-width:0.5;"/><text x="180.9" y="365.57" fill="#000" font-size="14" textLength="40.455" font-family="Arial">UC-06</text><text x="103.603" y="381.669" fill="#000" font-size="14" textLength="195.05" font-family="Arial">Синхронизировать календарь</text></g><!--entity Deliver--><g class="entity" data-qualified-name="LeaveOps.Deliver" id="ent0006" data-source-line="11"><ellipse cx="584.86" cy="374.671" rx="98.36" ry="22.072" fill="#F1F1F1" style="stroke:#181818;stroke-width:0.5;"/><text x="498.409" y="379.22" fill="#000" font-size="14" textLength="172.901" font-family="Arial">Доставить outbox-событие</text></g><!--entity Mapping--><g class="entity" data-qualified-name="LeaveOps.Mapping" id="ent0007" data-source-line="12"><ellipse cx="200.911" cy="288.405" rx="77.411" ry="25.306" fill="#F1F1F1" style="stroke:#181818;stroke-width:0.5;"/><text x="147.208" y="285.563" fill="#000" font-size="14" textLength="107.406" font-family="Arial">Настроить карту</text><text x="151.795" y="301.662" fill="#000" font-size="14" textLength="98.232" font-family="Arial">пользователей</text></g><!--entity MapCheck--><g class="entity" data-qualified-name="LeaveOps.MapCheck" id="ent0008" data-source-line="13"><ellipse cx="200.991" cy="459.837" rx="86.491" ry="25.239" fill="#F1F1F1" style="stroke:#181818;stroke-width:0.5;"/><text x="140.551" y="457.094" fill="#000" font-size="14" textLength="120.88" font-family="Arial">Проверить карту и</text><text x="146.526" y="473.192" fill="#000" font-size="14" textLength="108.931" font-family="Arial">личные разделы</text></g><!--entity Probe--><g class="entity" data-qualified-name="LeaveOps.Probe" id="ent0009" data-source-line="14"><ellipse cx="585.155" cy="288.83" rx="106.655" ry="23.731" fill="#F1F1F1" style="stroke:#181818;stroke-width:0.5;"/><text x="500.626" y="289.43" fill="#000" font-size="14" textLength="169.06" font-family="Arial">Проверить конфигурацию</text><text x="561.814" y="305.528" fill="#000" font-size="14" textLength="46.683" font-family="Arial">Bitrix24</text></g><!--entity Manager--><g class="entity" data-qualified-name="Manager" id="ent0001" data-source-line="5"><ellipse cx="201.062" cy="528.099" rx="8" ry="8" fill="#F1F1F1" style="stroke:#181818;stroke-width:0.5;"/><path d="M201.062,536.099 L201.062,563.099 M188.062,544.099 L214.062,544.099 M201.062,563.099 L188.062,578.099 M201.062,563.099 L214.062,578.099" style="stroke:#181818;stroke-width:0.5;" fill="none"/><text x="155.5" y="592.73" fill="#000" font-size="14" textLength="91.123" font-family="Arial">Руководитель</text></g><!--entity Admin--><g class="entity" data-qualified-name="Admin" id="ent0002" data-source-line="6"><ellipse cx="201.236" cy="51.099" rx="8" ry="8" fill="#F1F1F1" style="stroke:#181818;stroke-width:0.5;"/><path d="M201.236,59.099 L201.236,86.099 M188.236,67.099 L214.236,67.099 M201.236,86.099 L188.236,101.099 M201.236,86.099 L214.236,101.099" style="stroke:#181818;stroke-width:0.5;" fill="none"/><text x="150.5" y="115.73" fill="#000" font-size="14" textLength="101.473" font-family="Arial">Администратор</text><text x="150.5" y="131.829" fill="#000" font-size="14" textLength="74.088" font-family="Arial">интеграции</text></g><!--entity B24--><g class="entity" data-qualified-name="B24" id="ent0003" data-source-line="7"><ellipse cx="584.803" cy="541.197" rx="8" ry="8" fill="#F1F1F1" style="stroke:#181818;stroke-width:0.5;"/><path d="M584.803,549.197 L584.803,576.197 M571.803,557.197 L597.803,557.197 M584.803,576.197 L571.803,591.197 M584.803,576.197 L597.803,591.197" style="stroke:#181818;stroke-width:0.5;" fill="none"/><text x="531.11" y="605.829" fill="#000" font-size="14" textLength="107.386" font-family="Arial">Bitrix24 Calendar</text><text x="528" y="529.73" fill="#000" font-size="14" textLength="113.606" font-style="italic" font-family="Arial">«external system»</text></g><g class="entity" data-qualified-name="GMN24" id="ent0025" data-source-line="32"><path d="M30,174.599 L30,206.796 A5,5 0 0 0 35,211.796 L293,211.796 L297,361.069 L301,211.796 L366.824,211.796 A5,5 0 0 0 371.824,206.796 L371.824,179.599 L361.824,169.599 L35,169.599 A5,5 0 0 0 30,174.599" style="stroke:#181818;stroke-width:0.5;" fill="#FEFFDD"/><path d="M361.824,169.599 L361.824,177.099 A2.5,2.5 0 0 0 364.324,179.599 L371.824,179.599 L361.824,169.599" style="stroke:#181818;stroke-width:0.5;" fill="#FEFFDD"/><text x="36" y="187.73" fill="#000" font-size="14" textLength="204.634" font-family="Arial">Текущий PoC: ручной запуск —</text><text x="36" y="203.829" fill="#000" font-size="14" textLength="320.824" font-family="Arial">руководитель в UI или администратор через CLI.</text></g><g class="entity" data-qualified-name="GMN27" id="ent0028" data-source-line="37"><path d="M432,174.599 L432,206.796 A5,5 0 0 0 437,211.796 L732.648,211.796 A5,5 0 0 0 737.648,206.796 L737.648,179.599 L727.648,169.599 L437,169.599 A5,5 0 0 0 432,174.599" style="stroke:#181818;stroke-width:0.5;" fill="#FEFFDD"/><path d="M727.648,169.599 L727.648,177.099 A2.5,2.5 0 0 0 730.148,179.599 L737.648,179.599 L727.648,169.599" style="stroke:#181818;stroke-width:1;" fill="#FEFFDD"/><text x="438" y="187.73" fill="#000" font-size="14" textLength="284.648" font-family="Arial">IntegrationWorker — внутренний компонент,</text><text x="438" y="203.829" fill="#000" font-size="14" textLength="136.227" font-family="Arial">а не актор Use Case.</text></g><!--link Mapping to Probe--><!--link Sync to Deliver--><!--link Sync to Deliver--><g class="link" data-entity-1="ent0005" data-entity-2="ent0006" id="lnk22" data-source-line="28" data-link-type="dependency"><path d="M309.76,367.269 C367.19,367.269 431.95,367.269 486.87,367.269" style="stroke:#334155;stroke-width:1;stroke-dasharray:7,7;" fill="none" id="Sync-to-Deliver"/><polygon points="491.87,367.269,482.87,363.269,486.87,367.269,482.87,371.269,491.87,367.269" fill="#334155" style="stroke:#334155;stroke-width:1;stroke-linejoin:miter;stroke-miterlimit:10;"/><text x="401.81" y="381.4" fill="#000" font-size="14" textLength="59.938" font-family="Arial">«include»</text></g><!--link Manager to Sync--><g class="link" data-entity-1="ent0001" data-entity-2="ent0005" id="lnk12" data-source-line="20" data-link-type="dependency"><path d="M155.39,557.599 C129.02,557.599 101,557.599 101,557.599 C101,557.599 101,432.319 101,391.609" style="stroke:#334155;stroke-width:1;" fill="none" id="Manager-to-Sync"/><polygon points="101,386.609,97,395.609,101,391.609,105,395.609,101,386.609" fill="#334155" style="stroke:#334155;stroke-width:1;stroke-linejoin:miter;stroke-miterlimit:10;"/></g><!--link Admin to Sync--><g class="link" data-entity-1="ent0002" data-entity-2="ent0005" id="lnk13" data-source-line="21" data-link-type="dependency"><path d="M150.28,73.269 C92.5,73.269 6,73.269 6,73.269 C6,73.269 6,374.599 6,374.599 C6,374.599 39.5,374.599 82.29,374.599" style="stroke:#334155;stroke-width:1;" fill="none" id="Admin-to-Sync"/><polygon points="87.29,374.599,78.29,370.599,82.29,374.599,78.29,378.599,87.29,374.599" fill="#334155" style="stroke:#334155;stroke-width:1;stroke-linejoin:miter;stroke-miterlimit:10;"/></g><!--link Admin to Mapping--><g class="link" data-entity-1="ent0002" data-entity-2="ent0007" id="lnk14" data-source-line="22" data-link-type="dependency"><path d="M150.02,103.929 C95.88,103.929 18,103.929 18,103.929 C18,103.929 18,288.599 18,288.599 C18,288.599 68.51,288.599 118.39,288.599" style="stroke:#334155;stroke-width:1;" fill="none" id="Admin-to-Mapping"/><polygon points="123.39,288.599,114.39,284.599,118.39,288.599,114.39,292.599,123.39,288.599" fill="#334155" style="stroke:#334155;stroke-width:1;stroke-linejoin:miter;stroke-miterlimit:10;"/></g><!--link Admin to Probe--><g class="link" data-entity-1="ent0002" data-entity-2="ent0009" id="lnk15" data-source-line="23" data-link-type="dependency"><path d="M251.72,88.599 C311.27,88.599 402,88.599 402,88.599 C402,88.599 402,276.849 402,276.849 C402,276.849 442.22,276.849 487.7,276.849" style="stroke:#334155;stroke-width:1;" fill="none" id="Admin-to-Probe"/><polygon points="492.7,276.849,483.7,272.849,487.7,276.849,483.7,280.849,492.7,276.849" fill="#334155" style="stroke:#334155;stroke-width:1;stroke-linejoin:miter;stroke-miterlimit:10;"/></g><!--reverse link Deliver to B24--><g class="link" data-entity-1="ent0006" data-entity-2="ent0003" id="lnk17" data-source-line="24" data-link-type="dependency"><path d="M585,401.899 C585,431.179 585,478.299 585,516.289" style="stroke:#334155;stroke-width:1;" fill="none" id="Deliver-backto-B24"/><polygon points="585,396.899,581,405.899,585,401.899,589,405.899,585,396.899" fill="#334155" style="stroke:#334155;stroke-width:1;stroke-linejoin:miter;stroke-miterlimit:10;"/></g><!--reverse link MapCheck to B24--><g class="link" data-entity-1="ent0008" data-entity-2="ent0003" id="lnk19" data-source-line="25" data-link-type="dependency"><path d="M267,480.929 C267,511.709 267,570.269 267,570.269 C267,570.269 434.87,570.269 526.67,570.269" style="stroke:#334155;stroke-width:1;" fill="none" id="MapCheck-backto-B24"/><polygon points="267,475.929,263,484.929,267,480.929,271,484.929,267,475.929" fill="#334155" style="stroke:#334155;stroke-width:1;stroke-linejoin:miter;stroke-miterlimit:10;"/></g><!--reverse link Probe to B24--><g class="link" data-entity-1="ent0009" data-entity-2="ent0003" id="lnk21" data-source-line="26" data-link-type="dependency"><path d="M483,300.459 C483,341.219 483,544.929 483,544.929 C483,544.929 503.94,544.929 526.85,544.929" style="stroke:#334155;stroke-width:1;" fill="none" id="Probe-backto-B24"/><polygon points="483,295.459,479,304.459,483,300.459,487,304.459,483,295.459" fill="#334155" style="stroke:#334155;stroke-width:1;stroke-linejoin:miter;stroke-miterlimit:10;"/></g><!--link Mapping to MapCheck--><g class="link" data-entity-1="ent0007" data-entity-2="ent0008" id="lnk23" data-source-line="29" data-link-type="dependency"><path d="M269.99,300.349 C306.55,300.349 344,300.349 344,300.349 C344,300.349 344,459.599 344,459.599 C344,459.599 322.84,459.599 292.89,459.599" style="stroke:#334155;stroke-width:1;stroke-dasharray:7,7;" fill="none" id="Mapping-to-MapCheck"/><polygon points="287.89,459.599,296.89,463.599,292.89,459.599,296.89,455.599,287.89,459.599" fill="#334155" style="stroke:#334155;stroke-width:1;stroke-linejoin:miter;stroke-miterlimit:10;"/><text x="345" y="367.15" fill="#000" font-size="14" textLength="59.938" font-family="Arial">«include»</text></g><!--link Deliver to GMN27--><g class="link" data-entity-1="ent0006" data-entity-2="ent0028" id="lnk29" data-source-line="37" data-link-type="association"><path d="M683.53,374.599 C701.66,374.599 715,374.599 715,374.599 C715,374.599 715,260.039 715,211.709" style="stroke:#334155;stroke-width:1;stroke-dasharray:7,7;" fill="none" id="Deliver-GMN27"/></g><?plantuml-src XLJ9RXD14BtFLnG-CnP2Y4CKHIBc4YaHaP35WN2OU3hsAEDkQzmEYH2I5nOXHy0X1ow8vGkC4ojUOkSNgd-1B-5rPyPnp7OOMrFTzUgzLrLpAvAbk14AqXLH5VbQenfxiTZJf1KbKRcYAOmIKTAHafwET2oekBL9nRgWGe2VdyqJuayyDMqUyAbfSi-yuQ7vG9iYE12FQdKoBLgFT18TthtdUK59guHo_DLqUCmpxkCvmtsRFJ77EGhgj1N8e2oI-TsFk771GvxYNikqNOqspqnpHzhepSeyT1WFmceaCuIiF1Z7GeP1ugwi8x2wAWwrI6GGK_sehaLrRStphDf0bg4qbud8qGkFg54N9QivLopuT-wZ-ZTN_pLgpomxFWV3fbC5XkQO8B774z2RGaBFD5E1ZuzaQH6EJw06od2vRxr0fcheNNNecnRGVfWkpeOySCaFHHmTm9t5_Cy0lt9cbkRRogZNDXtGl4GOve9UIisQZMUKsbshHR9y0_1BAcE0_sL0uY4m9uY_XVWk3yXw3_0pryDk1bgeYDB-_r7Xd7a5TQUcCv-Uzpiowvb3sqxKhl20bN8b_sab2aCXduNgkVJJStB6BfzbVhtql7Imo7TpxQzTDSADohzZcKLBuQkoTevykp68PCKMOtCh5eEf8aSuRudcvycqWh5CbnBZc4dEkwhvQxobUvvKMj2kqbfLIUrbGyRVqPKnl7q7ZqUqhGehw1VUqJnuFo8qhiUN2BHuRBSPEVRyJzj9tAVY1lflkqz8-yjU4i1jZmTyJeNDZRo7fIDBxpUIryEy8RKe9u7zp3nHoJviS5-MFgQZux3j4asT1aVjmatrr8PD-xOLsYFxQccDKnhPH-gQm2y0?></g></svg>